<svg version="1" viewBox="0 0 300 300" xmlns="http://www.w3.org/2000/svg">
    <g fill="rgba(255, 0, 0, 0.45)" transform="translate(-8 4)">
        <path d="M61 38.5V60H28v20l31 .2 31.1.3L84 90.7c-13.5 22.9-33.7 45.1-52 57.2-5.2 3.3-9.7 6.1-10.2 6.1-1.4 0-.9 1.6 3.7 11.5l4.4 9.6 6.3-4.2c7.4-5 22.4-17.5 23.8-19.8.6-1 1 14.4 1 43.1V239h20v-47c0-25.9.3-47 .6-47 1.7 0 12.9 6.7 19.3 11.6 4 3.1 7.4 5.4 7.6 5.2 1.3-1.3 9.5-20.4 9.1-21.4-.6-1.6-17.4-9.7-26.1-12.6-3.8-1.2-7.2-2.4-7.3-2.5-.2-.1 2.6-4.3 6.3-9.5 6.2-8.6 22.5-35.1 24-39 .4-.9 1.6-1.8 2.8-2 1.5-.2 2.2-1 2.2-2.6 0-1.7-2.4-4.3-9-9.7l-9-7.4-2.6 2.5c-2.2 2.1-3.4 2.4-10.2 2.4H81V42.1c0-14.6.3-18.1 1.5-19.1 2.2-1.8 1.8-4.7-.7-5.4-1.3-.3-6.5-.6-11.5-.6H61v21.5zM169 40.5V59h-46v126h20v-8h26v62h20v-62h25v6h20V59h-45V43.6c0-12.4.3-15.6 1.5-16.6 2-1.6 1.9-3.6-.1-4.4-.9-.3-6-.6-11.5-.6H169v18.5zm0 53V108h-26V79h26v14.5zm45 0V108h-25V79h25v14.5zm-45 49V157h-26v-29h26v14.5zm45 0V157h-25v-29h25v14.5z"/>
    </g>
    <g fill="rgba(0, 255, 255, 0.45)" transform="translate(8 -4)">
        <path d="M61 38.5V60H28v20l31 .2 31.1.3L84 90.7c-13.5 22.9-33.7 45.1-52 57.2-5.2 3.3-9.7 6.1-10.2 6.1-1.4 0-.9 1.6 3.7 11.5l4.4 9.6 6.3-4.2c7.4-5 22.4-17.5 23.8-19.8.6-1 1 14.4 1 43.1V239h20v-47c0-25.9.3-47 .6-47 1.7 0 12.9 6.7 19.3 11.6 4 3.1 7.4 5.4 7.6 5.2 1.3-1.3 9.5-20.4 9.1-21.4-.6-1.6-17.4-9.7-26.1-12.6-3.8-1.2-7.2-2.4-7.3-2.5-.2-.1 2.6-4.3 6.3-9.5 6.2-8.6 22.5-35.1 24-39 .4-.9 1.6-1.8 2.8-2 1.5-.2 2.2-1 2.2-2.6 0-1.7-2.4-4.3-9-9.7l-9-7.4-2.6 2.5c-2.2 2.1-3.4 2.4-10.2 2.4H81V42.1c0-14.6.3-18.1 1.5-19.1 2.2-1.8 1.8-4.7-.7-5.4-1.3-.3-6.5-.6-11.5-.6H61v21.5zM169 40.5V59h-46v126h20v-8h26v62h20v-62h25v6h20V59h-45V43.6c0-12.4.3-15.6 1.5-16.6 2-1.6 1.9-3.6-.1-4.4-.9-.3-6-.6-11.5-.6H169v18.5zm0 53V108h-26V79h26v14.5zm45 0V108h-25V79h25v14.5zm-45 49V157h-26v-29h26v14.5zm45 0V157h-25v-29h25v14.5z"/>
    </g>
    <g fill="#fff">
        <path d="M170 25l-6 1v18l1 17-6 2-19 5-12 4-1-4-5-15-1 25 2 106 10-3 9-3v-4c0-4 0-4 5-5l5-1 4 15c1 2 1 3 3 2l6-1 2-1 1 19-1 19-1-7-2-6v-1l-1-1v9c0 8 0 8 3 8 2-1 2-1 2 1l3 15c1 1 13-5 14-6l2-29v-28l6-2 10-3 4-2-1 3c0 4 1 4 8 1 6-2 6-2 6 1v2c1-1 3 11 3 12h4a818 818 0 0 0-2-123l-23 6c-5 2-7 2-7 0 1 0 1-1 0 0l-1-6h-1l-1-2v-2l-1-1-1-4c-1-2-1-2-3-1h-3l-3-28c-1-4-1-4-11-2zm26 52v2c1-1 3 9 2 10h1l1 2v1l1 1h4l5-2v27c-2 1-3-3-2-5h-1l-1-2v-2l-1-2v-3l-1-2-2-3-8 2-8 3v-4l-1-13V77h3l4-2h2c1-1 2 0 2 2zm-29 22v11l-10 3-11 4V89l9-2 10-3c1-1 2 3 2 15zm39 35v13l-4 2-14 5-1-14 1-13 8-3a85 85 0 0 0 10-4v14zm-62 1v1l1 2v2a336 336 0 0 0 23-7v27l-3 2-12 4v-2-1c-1 1-1 0-1-1 0-6-3-15-4-16h-2l-1 1h-2c-1 1-1 0-1-7l-1-12c0-3 0-3 1 1l2 6z"/>
        <path d="M78 29l-9 3-1 20-2 20-3 1c-2 1-2 1-2-1v-2c-1 1-2-5-2-10l-1-2-1-1c-1-1-3 0-11 2l-9 4-1 11c0 12-1 11 15 5l10-3 1 5v6l1 1 1 2v2l1 1c0 2 3 1 13-2l13-5-2 5c-3 9-16 36-16 33v-2l-5-16-4 7c-6 12-23 36-30 42-3 3-3 4 1 13l5 8 5-5 8-9 6-10 4-4 1 24 4 58 8-2c11-2 10-2 10-8a1157 1157 0 0 1-1-50l2 7 1-11-1-12 5 1 10 5 1 1 4 2c2 2 5 2 5-1l3-12 4-11c0-2-13-7-23-8h-7l8-15a437 437 0 0 0 20-44c5-4 4-7-6-12l-8-4-3 3c-1 2-3 3-8 5l-6 2V50c0-12 1-17 2-19 2-2 1-5-2-5l-9 3z"/>
    </g>
</svg>